<?xml version="1.0" encoding="utf-8"?>
<!-- Generator: Adobe Illustrator 16.0.0, SVG Export Plug-In . SVG Version: 6.00 Build 0)  -->
<!DOCTYPE svg PUBLIC "-//W3C//DTD SVG 1.1//EN" "http://www.w3.org/Graphics/SVG/1.1/DTD/svg11.dtd">
<svg version="1.1" id="Layer_1" xmlns="http://www.w3.org/2000/svg" xmlns:xlink="http://www.w3.org/1999/xlink" x="0px" y="0px"
	 width="501.282px" height="144px" viewBox="0 0 501.282 144" enable-background="new 0 0 501.282 144" xml:space="preserve">
<g id="Layer_x0020_1">
	<g id="_708696560">
		
			<linearGradient id="SVGID_1_" gradientUnits="userSpaceOnUse" x1="2266.4766" y1="12324.7031" x2="2266.4766" y2="13672.7969" gradientTransform="matrix(0.072 0 0 0.072 80.0829 -863.9098)">
			<stop  offset="0" style="stop-color:#222745"/>
			<stop  offset="1" style="stop-color:#4B586D"/>
		</linearGradient>
		<path fill="url(#SVGID_1_)" d="M332.855,93.869c0-3.009-0.564-5.832-1.648-8.419c-1.129-2.586-2.632-5.031-4.469-7.336
			c-1.832-2.257-3.902-4.468-6.254-6.537c-2.352-2.114-4.702-4.139-7.146-6.161c-2.024-1.74-3.997-3.48-5.926-5.126
			c-1.976-1.693-3.715-3.386-5.265-5.219c-1.555-1.787-2.774-3.621-3.714-5.55c-0.896-1.93-1.365-3.95-1.365-6.112
			c0-2.116,0.377-3.998,1.13-5.736c0.752-1.693,1.787-3.197,3.058-4.419c1.316-1.27,2.818-2.211,4.514-2.87
			c1.694-0.706,3.526-1.036,5.455-1.036c1.977,0,3.857,0.33,5.55,0.939c1.74,0.658,3.242,1.552,4.562,2.681
			c1.363,1.175,2.398,2.634,3.105,4.28c0.703,1.694,1.032,3.527,1.032,5.644c0,0.564,0.33,0.94,1.035,1.129
			c0.657,0.142,1.176,0.048,1.597-0.376c1.177-1.598,1.836-3.577,2.025-5.973c0.14-2.352,0.232-4.701,0.232-6.913v-4.516
			c0-0.611-0.329-0.989-0.989-1.127c-3.854-1.083-7.992-1.646-12.414-1.646c-3.151,0-6.632,0.421-10.394,1.267
			c-3.763,0.802-7.242,2.117-10.487,3.951c-3.292,1.788-6.021,4.044-8.232,6.819c-2.209,2.726-3.291,6.02-3.291,9.877
			c0,2.585,0.563,5.125,1.694,7.57c1.082,2.492,2.586,4.94,4.42,7.337c1.832,2.398,3.95,4.795,6.351,7.146
			c2.351,2.305,4.748,4.655,7.197,7.007v-0.141c2.163,2.164,4.278,4.327,6.347,6.396c2.116,2.069,3.95,4.138,5.595,6.206
			c1.649,2.024,2.965,4.093,3.953,6.208c0.986,2.069,1.505,4.139,1.505,6.254c0,2.165-0.52,4.14-1.554,5.88
			c-1.083,1.738-2.399,3.244-4.045,4.514c-1.596,1.223-3.434,2.211-5.455,2.871c-1.977,0.656-3.95,0.987-5.879,0.987
			c-2.166,0-4.234-0.329-6.254-0.987c-1.976-0.659-3.811-1.646-5.362-2.871c-1.596-1.269-2.822-2.774-3.713-4.559
			c-0.894-1.836-1.224-3.859-1.083-6.115l0.141-1.974c0-0.329-0.141-0.613-0.377-0.754c-0.233-0.188-0.563-0.235-0.988-0.235
			c-0.328,0-0.659,0.047-0.94,0.188c-0.282,0.097-0.47,0.329-0.561,0.66c-0.188,0.658-0.331,1.408-0.52,2.21
			c-0.142,0.799-0.33,1.645-0.471,2.539c-0.375,1.177-0.657,2.352-0.892,3.526c-0.234,1.176-0.377,2.397-0.377,3.763
			c0,2.163,0.521,3.998,1.554,5.502c1.033,1.505,2.35,2.68,3.949,3.574c1.601,0.893,3.339,1.506,5.267,1.884
			c1.928,0.374,3.762,0.563,5.502,0.563c3.575,0,7.336-0.659,11.286-1.929c3.906-1.318,7.525-3.148,10.769-5.457
			c3.245-2.351,5.928-5.124,8.089-8.419C331.818,101.485,332.855,97.865,332.855,93.869z M55.347,25.726l-1.977-0.99
			c-2.257,0.895-4.468,1.364-6.63,1.364H33.573c-5.409,0-10.769,0-16.083-0.046c-5.313-0.047-10.675-0.14-16.083-0.329
			c-0.706,0-1.128,0.283-1.317,0.799c-0.235,0.564,0,0.988,0.659,1.317c0.846,0.518,1.693,0.893,2.54,1.223
			c0.799,0.284,1.598,0.518,2.351,0.66c0.658,0.186,1.27,0.328,1.834,0.516c0.518,0.143,1.034,0.423,1.41,0.8
			c0.423,0.375,0.752,0.939,1.034,1.646c0.236,0.706,0.376,1.693,0.376,2.917v69.411c0,1.976-0.046,3.622-0.141,4.938
			c-0.095,1.27-0.377,2.354-0.894,3.106c-0.471,0.8-1.223,1.409-2.211,1.832c-1.036,0.422-2.446,0.8-4.279,1.129
			c-0.847,0.188-1.223,0.563-1.176,1.177c0.046,0.658,0.47,0.939,1.316,0.939c5.08,0.285,10.252,0.375,15.52,0.375
			c5.079,0,10.157-0.093,15.143-0.375l-0.236-2.116c-4.185,0.188-6.866-0.705-8.089-2.587s-1.834-4.796-1.834-8.795V72.564
			c0.706,0.094,1.224,0.141,1.646,0.141c0.517,0,1.082,0,1.74,0c0.941,0,1.787-0.047,2.587-0.095
			c0.799-0.046,1.646-0.094,2.54-0.188c0.846-0.045,1.646-0.142,2.397-0.188c0.752-0.047,1.505-0.047,2.258-0.047
			c3.244,0,5.784,0.659,7.571,1.927c1.787,1.318,2.632,3.765,2.586,7.337c0,0.329,0.142,0.564,0.424,0.753
			c0.282,0.188,0.61,0.281,0.941,0.329c0.329,0.048,0.658,0,0.94-0.141s0.47-0.375,0.564-0.704c0.658-2.916,1.223-5.88,1.646-8.889
			c0.375-3.009,0.705-6.021,0.846-9.125c0-0.611-0.282-0.988-0.846-1.127c-0.611-0.188-1.128-0.048-1.646,0.375
			c-0.423,0.518-1.129,1.081-2.117,1.833c-1.034,0.706-1.833,1.035-2.54,1.035H23.415V33.719c1.364,0,2.492-0.046,3.386-0.233
			c0.94-0.142,2.068-0.329,3.386-0.52c1.504-0.14,2.963-0.328,4.374-0.471c1.458-0.185,2.869-0.282,4.279-0.282
			c3.246,0,5.831,0.753,7.76,2.165c1.928,1.409,2.869,3.903,2.869,7.523c0,0.471,0.235,0.8,0.705,0.988
			c0.47,0.142,0.987,0.142,1.552-0.141c0.658-0.47,1.223-1.223,1.646-2.163c0.423-0.989,0.705-2.024,0.942-3.198
			c0.188-1.175,0.329-2.399,0.423-3.716c0.094-1.269,0.188-2.541,0.235-3.667c0.095-0.846,0.188-1.647,0.188-2.398
			C55.206,26.854,55.3,26.244,55.347,25.726z M111.451,98.616c0-0.611-0.377-0.94-1.129-1.081c-0.752-0.096-1.317,0.096-1.739,0.563
			c-1.599,2.916-3.809,5.172-6.678,6.772c-2.916,1.599-5.878,2.4-8.981,2.4c-1.504,0-2.963-0.237-4.42-0.658
			c-1.458-0.425-2.774-1.035-3.903-1.881c-1.129-0.803-2.022-1.883-2.727-3.106c-0.706-1.269-1.082-2.729-1.082-4.373V50.507
			c0-1.503,0.518-2.632,1.552-3.433c1.034-0.799,2.304-1.081,3.715-0.939h1.505c0.752,0,1.176-0.331,1.223-0.939
			c0.094-0.612-0.188-1.034-0.847-1.176c-1.787-0.516-3.575-0.8-5.456-0.894c-1.881-0.092-3.762-0.092-5.596-0.092
			c-1.223,0-2.446,0-3.668,0.045c-1.222,0.047-2.445,0.047-3.715,0.047h-7.008c-0.563,0-1.035,0.188-1.317,0.518
			c-0.283,0.328-0.283,0.706-0.046,1.127c0.235,0.473,0.8,0.85,1.692,1.035c0.847,0.235,1.693,0.377,2.445,0.472
			c0.894,0.094,1.787,0.33,2.681,0.799c0.893,0.47,1.317,1.647,1.317,3.576v50.835c0,2.164-0.376,3.952-1.128,5.409
			c-0.753,1.41-2.258,2.163-4.515,2.256c-0.846,0-1.27,0.33-1.316,1.035c-0.047,0.705,0.375,1.13,1.176,1.176
			c4.09,0.281,8.323,0.375,12.65,0.375c1.694,0,3.386,0,5.174-0.046c1.739-0.048,3.432-0.048,5.125-0.048
			c1.975-0.094,3.951-0.141,5.878-0.141c2.021,0,3.998,0,6.02,0c1.928,0,3.856,0.047,5.831,0.047
			c1.928,0.047,3.904,0.188,5.784,0.327l0.376-2.258c-0.235-0.092-0.376-0.092-0.471-0.045c-0.094,0.045-0.282,0-0.517-0.047
			c0.847-1.505,1.364-3.104,1.504-4.703c0.188-1.646,0.33-3.293,0.518-4.984c0-0.235,0-0.47,0.046-0.659
			C111.451,98.948,111.451,98.76,111.451,98.616z M164.45,99.371c0.095-0.285-0.048-0.473-0.329-0.706
			c-0.282-0.188-0.612-0.33-0.941-0.377c-0.329-0.048-0.658,0-0.987,0.141c-0.329,0.142-0.565,0.331-0.612,0.565
			c-0.752,2.914-2.257,5.031-4.514,6.301c-2.257,1.318-4.75,1.976-7.383,1.976c-2.211,0-4.468-0.424-6.913-1.271
			c-2.398-0.848-4.28-2.163-5.644-3.998V77.688h1.646c0.987,0,2.257,0,3.762,0c1.506,0,3.01,0.048,4.563,0.142
			c1.552,0.096,2.962,0.235,4.186,0.423c1.27,0.233,2.117,0.47,2.492,0.799c0.283,0.188,0.565,0.612,0.847,1.27
			c0.283,0.659,0.565,1.362,0.8,2.117c0.094,0.422,0.094,0.751,0.047,0.938c0,0.234,0.469,0.613,1.457,1.223
			c0.423,0.33,0.894,0.378,1.365,0.235c0.517-0.187,0.799-0.473,0.894-0.893c0.187-1.175,0.329-2.257,0.517-3.244
			c0.14-0.99,0.329-2.023,0.47-3.01c0.189-1.081,0.329-2.351,0.471-3.855c0.094-1.504,0.235-2.821,0.424-3.904
			c0.093-0.423-0.048-0.752-0.424-1.081c-0.375-0.284-0.894-0.33-1.458-0.189c-0.518,0.189-1.034,0.564-1.552,1.13
			c-0.564,0.611-1.176,1.081-1.833,1.411h0.141c-0.752,0.234-1.458,0.517-2.163,0.798c-0.659,0.283-1.175,0.421-1.599,0.421h-15.05
			V48.532h2.258c0.658,0,1.364-0.048,2.022-0.098c0.659-0.045,1.27-0.045,1.881-0.045c0.658,0,1.317,0,1.928-0.047
			c0.611-0.046,1.271-0.095,1.928-0.095c1.175,0,2.352,0.095,3.527,0.285c1.176,0.139,2.21,0.468,3.104,0.937
			c0.941,0.424,1.694,1.083,2.258,1.929c0.611,0.848,0.939,1.976,1.034,3.386c0.047,0.66,0.518,0.991,1.364,0.991
			c0.847,0,1.317-0.283,1.505-0.894c0.14-0.47,0.282-0.988,0.377-1.458c0.093-0.519,0.187-1.08,0.375-1.646
			c0.33-1.317,0.659-2.682,0.988-3.998c0.33-1.364,0.612-2.822,0.752-4.373c0.095-0.423-0.094-0.752-0.47-1.036
			c-0.423-0.234-0.94-0.283-1.504-0.094c-1.176,0.376-3.48,0.706-6.913,0.848c-3.434,0.188-7.195,0.283-11.38,0.283
			c-2.916,0-5.831-0.046-8.654-0.094c-2.821-0.049-5.456-0.096-7.899-0.189c-1.505,0-2.822,0-4.045-0.046
			c-1.223-0.048-2.21-0.048-2.961-0.048c-0.753,0-1.223,0.235-1.505,0.706c-0.236,0.517-0.047,0.94,0.659,1.27
			c0.658,0.423,1.317,0.706,2.022,0.893c0.751,0.141,1.412,0.33,2.068,0.47c0.942,0.187,1.787,0.518,2.587,0.94
			c0.799,0.47,1.176,1.412,1.176,2.821v51.354c0,2.258-0.376,4.092-1.129,5.457c-0.752,1.363-2.258,2.115-4.609,2.211
			c-0.752,0-1.176,0.329-1.176,1.034c-0.046,0.704,0.282,1.127,1.035,1.175c2.915,0.188,5.878,0.235,8.888,0.188
			c3.009,0,6.02-0.047,9.029-0.047c1.317,0,2.681,0,3.998-0.046c1.363-0.048,2.681-0.097,3.998-0.097
			c0.61,0,1.646,0.049,3.104,0.097c1.458,0.046,3.009,0.093,4.608,0.093c1.647,0.048,3.152,0.095,4.562,0.095
			c1.458,0,2.399-0.095,2.917-0.284l0.987-0.469L164.45,99.371z M242.701,109.62c-2.256-0.47-4.373-1.551-6.395-3.104
			c-1.975-1.596-3.904-3.479-5.738-5.643c-1.833-2.163-3.62-4.563-5.313-7.1c-1.739-2.539-3.338-5.08-4.843-7.571
			c-1.177-2.069-2.445-4.14-3.811-6.209c-1.363-2.023-2.68-3.904-3.949-5.548c0.941-1.082,1.881-2.257,2.821-3.575
			c0.939-1.317,2.021-2.821,3.197-4.561c1.505-2.164,3.104-4.42,4.75-6.772c1.694-2.351,3.386-4.468,5.126-6.397
			c1.787-1.928,3.527-3.526,5.313-4.795c1.834-1.321,3.576-2.025,5.36-2.211c0.801-0.096,1.271-0.422,1.365-0.989
			c0.094-0.613-0.284-0.989-1.129-1.129c-1.693-0.423-3.434-0.658-5.267-0.754c-1.832-0.092-3.668-0.14-5.503-0.14
			c-1.739,0-3.526,0.049-5.265,0.14c-1.739,0.096-3.527,0.188-5.267,0.377c-0.846,0.094-1.271,0.423-1.364,0.988
			c-0.093,0.614,0.284,0.989,1.129,1.131c0.848,0.186,1.787,0.517,2.822,0.987c1.034,0.518,1.552,1.27,1.552,2.257
			c0,0.518-0.235,1.225-0.752,2.069c-0.519,0.893-1.129,1.882-1.928,2.963c-0.8,1.082-1.695,2.21-2.681,3.433
			c-1.034,1.223-2.021,2.398-3.008,3.575c-1.175,1.412-2.259,2.729-3.199,3.906c-0.987,1.127-1.788,2.257-2.446,3.337
			c-0.752-1.129-1.598-2.351-2.493-3.621c-0.94-1.224-1.882-2.587-2.916-3.998c-1.739-2.49-3.386-4.889-4.984-7.146
			c-1.598-2.257-2.399-3.95-2.399-5.127c0-0.939,0.376-1.598,1.129-2.069c0.752-0.471,1.505-0.798,2.258-1.079
			c0.658-0.144,0.939-0.564,0.799-1.177c-0.093-0.612-0.564-0.941-1.316-0.941c-1.552,0.095-3.152,0.095-4.655,0.095
			c-1.552-0.045-3.103-0.095-4.609-0.095h-4.609c-1.834,0-3.714,0.048-5.597,0.144c-1.881,0.094-3.621,0.328-5.314,0.751
			c-0.752,0.142-1.128,0.519-1.128,1.129c0,0.471,0.423,0.846,1.271,0.988c2.164,0.329,4.184,1.128,6.066,2.444
			c1.881,1.318,3.621,2.871,5.267,4.75c1.6,1.882,3.152,3.95,4.608,6.208c1.458,2.257,2.87,4.467,4.233,6.631
			c0.799,1.411,1.928,3.196,3.385,5.407c1.41,2.165,2.586,3.949,3.622,5.361c-1.176,1.412-2.258,2.918-3.292,4.517
			c-0.988,1.597-2.117,3.339-3.34,5.266c-1.692,2.491-3.433,5.078-5.22,7.759c-1.788,2.682-3.668,5.126-5.55,7.336
			c-1.929,2.211-3.903,4.044-5.925,5.502c-1.976,1.458-3.998,2.212-5.973,2.305c-0.847,0.094-1.269,0.471-1.222,1.175
			c0.046,0.753,0.517,1.081,1.316,1.081h3.008c3.01,0,6.068,0,9.172-0.046c3.056-0.046,6.161-0.143,9.265-0.33
			c0.752-0.094,1.128-0.374,1.223-0.94c0.093-0.518-0.188-0.939-0.846-1.173c-0.706-0.331-1.458-0.52-2.257-0.52
			c-0.424,0-0.847-0.142-1.271-0.472c0.236-1.126,0.799-2.489,1.646-4.14c0.799-1.692,1.834-3.479,3.057-5.312
			c1.223-1.882,2.493-3.811,3.81-5.785c1.363-1.975,2.586-3.764,3.762-5.457c0.658-0.893,1.27-1.741,1.741-2.444
			c0.518-0.706,0.987-1.364,1.411-2.07c0.657,1.035,1.504,2.306,2.633,3.907c1.083,1.596,2.21,3.242,3.435,4.983
			c1.173,1.785,2.398,3.573,3.62,5.406c1.224,1.835,2.305,3.479,3.244,4.988c0.989,1.503,1.742,2.773,2.304,3.853
			c0.611,1.034,0.894,1.696,0.894,1.931c0,0.518-0.142,0.891-0.518,1.268c-0.564,0.378-0.754,0.849-0.564,1.268
			c0.235,0.472,0.706,0.706,1.459,0.706c1.692,0,3.384,0.048,5.078,0.048c1.692,0.047,3.433,0.141,5.174,0.188
			c1.692,0.094,3.339,0.14,5.031,0.14c1.648,0,3.386,0,5.127,0L242.701,109.62z M276.892,109.997
			c-0.66-0.563-1.365-0.937-2.069-1.032c-0.704-0.142-1.505-0.188-2.445-0.188c-0.423,0-0.847-0.045-1.363-0.141
			c-0.518-0.093-0.893-0.188-1.128-0.235c-0.188-0.282-0.377-0.752-0.611-1.41c-0.286-0.659-0.472-1.365-0.661-2.117
			c-0.142-0.751-0.282-1.458-0.422-2.115c-0.138-0.658-0.186-1.173-0.186-1.504V50.65c0-2.021,0.564-3.243,1.74-3.76
			c1.175-0.519,2.586-0.894,4.279-1.128c0.754-0.142,1.083-0.519,1.083-1.13c-0.048-0.562-0.471-0.891-1.223-0.989
			c-1.929-0.187-3.811-0.187-5.644,0c-1.835,0.142-3.716,0.236-5.597,0.236c-1.928,0-3.905-0.096-5.927-0.236
			c-1.974-0.187-3.999-0.187-5.973,0c-0.846,0.097-1.27,0.424-1.318,1.035c-0.046,0.657,0.33,0.988,1.177,1.083
			c1.504,0.186,2.961,0.609,4.326,1.316c1.363,0.706,2.069,1.882,2.069,3.575v50.979c0,0.657-0.096,1.408-0.186,2.259
			c-0.146,0.798-0.329,1.645-0.564,2.491c-0.285,0.846-0.615,1.501-1.084,2.067c-0.47,0.518-1.035,0.8-1.693,0.8
			c-0.141,0-0.377,0.092-0.659,0.187c-0.329,0.143-0.656,0.097-1.081-0.047c-0.754-0.187-1.318,0.144-1.645,0.938
			c-0.333,0.801-0.098,1.319,0.655,1.553c0.563,0.235,1.365,0.424,2.446,0.424c1.033,0.046,2.114,0.046,3.245-0.049
			c1.127-0.092,2.162-0.14,3.199-0.233c0.989-0.095,1.833-0.142,2.491-0.142l4.749,0.142c1.598,0.095,3.105,0.095,4.562,0
			s2.963-0.095,4.467,0L276.892,109.997z M424.932,118.65v-2.258c-2.445-0.188-4.703-0.753-6.816-1.739
			c-2.167-1.034-3.811-2.728-4.987-5.125c-1.738-3.764-3.524-7.76-5.313-11.993c-1.785-4.185-3.574-8.512-5.316-12.932
			c-1.738-4.42-3.432-8.843-5.077-13.167c-1.596-4.328-3.198-8.513-4.702-12.508c-1.082-2.916-2.212-5.785-3.434-8.514
			c-1.223-2.772-2.302-5.5-3.294-8.134c-0.184-0.376-0.327-0.753-0.467-1.27c-0.095-0.517-0.331-0.989-0.66-1.504
			c-0.938-2.586-1.974-5.408-3.149-8.371c-1.175-3.009-2.445-5.314-3.904-6.913c-0.329-0.423-0.703-0.518-1.128-0.234
			c-0.376,0.234-0.706,0.517-0.847,0.847c-3.105,8.135-6.161,16.176-9.171,24.171c-2.962,8.043-5.925,16.083-8.887,24.172
			c-1.977,5.499-3.951,11.193-5.928,16.977c-1.975,5.783-4.044,11.474-6.205,16.977c-0.424,0.986-0.99,2.068-1.692,3.196
			c-0.706,1.132-1.553,2.163-2.494,3.105c-0.989,0.99-1.973,1.787-3.008,2.4c-1.035,0.612-2.117,0.939-3.2,0.939
			c-0.094,0-0.328,0-0.704-0.049c-0.378-0.045-0.61,0.049-0.798,0.286c-0.33,0.327-0.424,0.703-0.235,1.031
			c0.094,0.144,0.187,0.331,0.376,0.471c0.142,0.188,0.232,0.284,0.232,0.284l26.055,0.094c0.847,0,1.269-0.283,1.317-0.938
			c0.048-0.611-0.375-0.989-1.176-1.175c-1.269-0.188-2.537-0.47-3.856-0.941c-1.265-0.469-1.927-1.41-1.927-2.82
			c0-1.081,0.377-2.963,1.081-5.69c0.707-2.728,1.554-5.597,2.541-8.653c1.035-3.058,2.023-6.021,3.105-8.889
			c1.034-2.87,1.88-5.077,2.54-6.584h24.688c1.928,5.266,3.902,10.535,5.925,15.802c2.067,5.268,4.091,10.533,6.067,15.754
			l-4.378,2.251c-0.471,0.42-0.61,0.799-0.375,1.127c0.282,0.328,0.705,0.563,1.41,0.657c1.739,0.144,3.903,0.187,6.49,0.094
			c2.587-0.094,4.799-0.094,6.63-0.094c2.494,0,4.987,0,7.384,0.048C420.088,118.887,422.486,118.791,424.932,118.65z
			 M385.992,76.563h-20.174c1.836-5.269,3.528-10.3,5.08-15.095c1.552-4.795,3.15-9.83,4.796-15.097L385.992,76.563z
			 M486.539,25.726l-2.023-0.99c-2.258,0.895-4.471,1.364-6.632,1.364h-13.12c-5.459,0-10.817,0-16.132-0.046
			c-5.265-0.047-10.627-0.14-16.082-0.329c-0.657,0-1.082,0.283-1.318,0.799c-0.187,0.564,0.049,0.988,0.706,1.317
			c0.848,0.518,1.646,0.893,2.49,1.223c0.848,0.284,1.649,0.518,2.4,0.66c0.66,0.186,1.27,0.328,1.787,0.516
			c0.564,0.143,1.034,0.423,1.458,0.8c0.424,0.375,0.753,0.939,0.988,1.646c0.282,0.706,0.377,1.693,0.377,2.917v69.411
			c0,1.976-0.046,3.622-0.096,4.938c-0.094,1.27-0.376,2.354-0.894,3.106c-0.518,0.8-1.266,1.409-2.256,1.832
			c-0.989,0.422-2.399,0.8-4.28,1.129c-0.798,0.188-1.224,0.563-1.175,1.177c0.048,0.658,0.47,0.939,1.315,0.939
			c5.081,0.285,10.253,0.375,15.521,0.375c5.126,0,10.158-0.093,15.19-0.375l-0.285-2.116c-4.184,0.188-6.866-0.705-8.088-2.587
			c-1.175-1.882-1.786-4.796-1.786-8.795V72.564c0.657,0.094,1.224,0.141,1.598,0.141c0.518,0,1.129,0,1.787,0
			c0.893,0,1.738-0.047,2.538-0.095c0.801-0.046,1.648-0.094,2.586-0.188c0.85-0.045,1.648-0.142,2.4-0.188
			c0.706-0.047,1.459-0.047,2.211-0.047c3.293,0,5.783,0.659,7.619,1.927c1.785,1.318,2.633,3.765,2.537,7.337
			c0,0.329,0.142,0.564,0.423,0.753c0.33,0.188,0.612,0.281,0.94,0.329c0.375,0.048,0.657,0,0.94-0.141
			c0.328-0.141,0.518-0.375,0.561-0.704c0.706-2.916,1.224-5.88,1.648-8.889c0.421-3.009,0.703-6.021,0.893-9.125
			c0-0.611-0.329-0.988-0.893-1.127c-0.564-0.188-1.128-0.048-1.648,0.375c-0.374,0.518-1.126,1.081-2.113,1.833
			c-0.99,0.706-1.836,1.035-2.495,1.035h-21.537V33.719c1.318,0,2.446-0.046,3.386-0.233c0.894-0.142,2.022-0.329,3.387-0.52
			c1.505-0.14,2.962-0.328,4.373-0.471c1.411-0.185,2.821-0.282,4.232-0.282c3.292,0,5.878,0.753,7.761,2.165
			c1.928,1.409,2.915,3.903,2.915,7.523c0,0.471,0.234,0.8,0.655,0.988c0.471,0.142,0.991,0.142,1.6-0.141
			c0.657-0.47,1.176-1.223,1.598-2.163c0.422-0.989,0.753-2.024,0.938-3.198c0.235-1.175,0.377-2.399,0.471-3.716
			c0.049-1.269,0.144-2.541,0.234-3.667c0.095-0.846,0.142-1.647,0.188-2.398C486.397,26.854,486.444,26.244,486.539,25.726z"/>
		<polygon fill="#A8CF45" points="282.206,118.135 37.147,118.135 37.147,116.063 282.206,116.063 		"/>
	</g>
</g>
</svg>
