<?xml version="1.0" encoding="utf-8"?>
<!-- Generator: Adobe Illustrator 16.0.0, SVG Export Plug-In . SVG Version: 6.00 Build 0)  -->
<!DOCTYPE svg PUBLIC "-//W3C//DTD SVG 1.1//EN" "http://www.w3.org/Graphics/SVG/1.1/DTD/svg11.dtd">
<svg version="1.1" id="Layer_1" xmlns="http://www.w3.org/2000/svg" xmlns:xlink="http://www.w3.org/1999/xlink" x="0px" y="0px"
	 width="792px" height="612px" viewBox="0 0 792 612" enable-background="new 0 0 792 612" xml:space="preserve">
<g id="Layer_x0020_1">
	<g id="_708696560">
		
			<linearGradient id="SVGID_1_" gradientUnits="userSpaceOnUse" x1="5319.1709" y1="5046.0947" x2="5319.1709" y2="7110.1025" gradientTransform="matrix(0.072 0 0 0.072 13.0235 1.0006)">
			<stop  offset="0" style="stop-color:#222745"/>
			<stop  offset="1" style="stop-color:#4B586D"/>
		</linearGradient>
		<path fill="url(#SVGID_1_)" d="M533.16,472.104c0-4.606-0.864-8.928-2.521-12.888c-1.728-3.96-4.03-7.704-6.84-11.23
			c-2.808-3.456-5.976-6.842-9.576-10.01c-3.6-3.238-7.199-6.336-10.942-9.432c-3.098-2.664-6.12-5.328-9.072-7.848
			c-3.024-2.593-5.688-5.186-8.063-7.992c-2.377-2.736-4.248-5.544-5.688-8.496c-1.368-2.952-2.088-6.048-2.088-9.36
			c0-3.238,0.576-6.119,1.728-8.782c1.152-2.594,2.736-4.896,4.682-6.77c2.016-1.944,4.318-3.384,6.911-4.392
			c2.593-1.08,5.399-1.584,8.353-1.584c3.024,0,5.904,0.504,8.496,1.438c2.664,1.008,4.968,2.376,6.983,4.104
			c2.089,1.8,3.673,4.031,4.752,6.552c1.08,2.592,1.584,5.4,1.584,8.64c0,0.864,0.505,1.44,1.585,1.729
			c1.008,0.216,1.8,0.072,2.446-0.576c1.801-2.448,2.81-5.472,3.098-9.144c0.216-3.602,0.358-7.2,0.358-10.584v-6.912
			c0-0.938-0.504-1.514-1.512-1.729c-5.904-1.656-12.24-2.52-19.008-2.52c-4.824,0-10.152,0.646-15.912,1.942
			c-5.76,1.226-11.088,3.24-16.056,6.049c-5.04,2.735-9.218,6.191-12.602,10.439c-3.384,4.176-5.04,9.216-5.04,15.12
			c0,3.96,0.864,7.848,2.592,11.592c1.656,3.816,3.96,7.562,6.77,11.232c2.808,3.672,6.048,7.344,9.72,10.942
			c3.602,3.528,7.272,7.128,11.018,10.729v-0.216c3.312,3.312,6.552,6.624,9.72,9.792c3.239,3.168,6.048,6.336,8.566,9.504
			c2.521,3.096,4.536,6.264,6.05,9.504c1.512,3.168,2.304,6.336,2.304,9.576c0,3.312-0.792,6.336-2.376,9
			c-1.656,2.664-3.672,4.968-6.192,6.912c-2.447,1.87-5.256,3.384-8.352,4.392c-3.024,1.008-6.048,1.512-9,1.512
			c-3.313,0-6.48-0.504-9.576-1.512c-3.024-1.008-5.832-2.521-8.208-4.392c-2.448-1.944-4.32-4.248-5.688-6.984
			c-1.367-2.808-1.872-5.904-1.655-9.36l0.216-3.022c0-0.504-0.216-0.938-0.576-1.152c-0.359-0.288-0.863-0.36-1.512-0.36
			c-0.504,0-1.008,0.072-1.44,0.288c-0.432,0.146-0.72,0.504-0.862,1.01c-0.288,1.008-0.505,2.158-0.793,3.384
			c-0.217,1.224-0.504,2.52-0.721,3.888c-0.575,1.8-1.008,3.601-1.367,5.4s-0.576,3.672-0.576,5.76c0,3.312,0.793,6.12,2.377,8.424
			s3.6,4.104,6.048,5.472c2.448,1.368,5.111,2.306,8.063,2.882c2.952,0.574,5.761,0.862,8.425,0.862
			c5.473,0,11.231-1.008,17.279-2.952c5.978-2.016,11.521-4.822,16.488-8.352c4.968-3.6,9.072-7.848,12.384-12.888
			C531.576,483.768,533.16,478.224,533.16,472.104z M108.288,367.776l-3.024-1.514c-3.456,1.368-6.84,2.088-10.152,2.088h-20.16
			c-8.28,0-16.488,0-24.624-0.07c-8.136-0.072-16.344-0.216-24.624-0.504c-1.08,0-1.728,0.432-2.016,1.224
			c-0.36,0.864,0,1.512,1.008,2.016c1.296,0.792,2.592,1.368,3.888,1.872c1.224,0.434,2.448,0.792,3.6,1.01
			c1.008,0.286,1.944,0.504,2.808,0.79c0.792,0.218,1.584,0.648,2.16,1.226c0.648,0.576,1.152,1.438,1.584,2.52
			c0.36,1.08,0.576,2.594,0.576,4.466v106.271c0,3.024-0.072,5.544-0.216,7.56c-0.144,1.944-0.576,3.602-1.368,4.754
			c-0.72,1.224-1.872,2.158-3.384,2.808c-1.584,0.646-3.744,1.224-6.552,1.728c-1.296,0.288-1.872,0.864-1.8,1.802
			c0.072,1.008,0.72,1.438,2.016,1.438c7.776,0.433,15.696,0.576,23.76,0.576c7.776,0,15.552-0.145,23.184-0.576l-0.36-3.24
			c-6.408,0.288-10.512-1.08-12.384-3.96s-2.808-7.344-2.808-13.464V439.49c1.08,0.144,1.872,0.216,2.52,0.216
			c0.792,0,1.656,0,2.664,0c1.44,0,2.736-0.072,3.96-0.146c1.224-0.07,2.52-0.144,3.888-0.287c1.296-0.071,2.52-0.217,3.672-0.287
			c1.152-0.072,2.304-0.072,3.456-0.072c4.968,0,8.856,1.008,11.592,2.952c2.736,2.016,4.032,5.76,3.96,11.23
			c0,0.504,0.216,0.864,0.648,1.152c0.432,0.288,0.936,0.432,1.44,0.504c0.504,0.072,1.008,0,1.44-0.216
			c0.432-0.216,0.72-0.576,0.864-1.08c1.008-4.464,1.872-9,2.52-13.608c0.576-4.606,1.08-9.216,1.296-13.968
			c0-0.936-0.432-1.512-1.296-1.728c-0.936-0.288-1.728-0.072-2.52,0.575c-0.648,0.792-1.728,1.655-3.24,2.809
			c-1.584,1.08-2.808,1.584-3.888,1.584H59.4v-49.104c2.088,0,3.816-0.07,5.184-0.358c1.44-0.216,3.168-0.504,5.184-0.792
			c2.304-0.216,4.536-0.504,6.696-0.721c2.232-0.287,4.392-0.433,6.552-0.433c4.968,0,8.928,1.152,11.88,3.313
			c2.952,2.158,4.392,5.976,4.392,11.52c0,0.72,0.36,1.224,1.08,1.512c0.72,0.217,1.512,0.217,2.376-0.216
			c1.008-0.72,1.872-1.872,2.52-3.312c0.648-1.514,1.08-3.098,1.44-4.896c0.288-1.8,0.504-3.672,0.648-5.688
			c0.144-1.944,0.288-3.89,0.36-5.616c0.144-1.296,0.288-2.521,0.288-3.672C108.072,369.504,108.216,368.568,108.288,367.776z
			 M194.184,479.376c0-0.936-0.576-1.44-1.728-1.656c-1.152-0.144-2.016,0.146-2.664,0.864c-2.448,4.464-5.832,7.92-10.224,10.368
			c-4.464,2.448-9,3.672-13.752,3.672c-2.304,0-4.536-0.36-6.768-1.008c-2.232-0.648-4.248-1.584-5.976-2.88
			c-1.728-1.226-3.096-2.88-4.176-4.752c-1.08-1.944-1.656-4.178-1.656-6.696V405.72c0-2.304,0.792-4.032,2.376-5.256
			s3.528-1.656,5.688-1.438h2.304c1.152,0,1.8-0.506,1.872-1.44c0.144-0.936-0.288-1.584-1.296-1.8
			c-2.736-0.792-5.472-1.226-8.352-1.368c-2.88-0.145-5.76-0.145-8.568-0.145c-1.872,0-3.744,0-5.616,0.071
			c-1.872,0.072-3.744,0.072-5.688,0.072h-10.728c-0.864,0-1.584,0.288-2.016,0.792c-0.432,0.504-0.432,1.08-0.072,1.728
			c0.36,0.722,1.224,1.298,2.592,1.584c1.296,0.36,2.592,0.576,3.744,0.722c1.368,0.144,2.736,0.504,4.104,1.224
			s2.016,2.521,2.016,5.473v77.831c0,3.313-0.576,6.05-1.728,8.28c-1.152,2.16-3.456,3.313-6.912,3.456
			c-1.296,0-1.944,0.504-2.016,1.584c-0.072,1.08,0.576,1.729,1.8,1.8c6.264,0.434,12.744,0.576,19.368,0.576
			c2.592,0,5.184,0,7.92-0.072c2.664-0.07,5.256-0.07,7.848-0.07c3.024-0.146,6.048-0.217,9-0.217c3.096,0,6.12,0,9.216,0
			c2.952,0,5.904,0.071,8.928,0.071c2.952,0.072,5.976,0.288,8.856,0.504l0.576-3.456c-0.36-0.144-0.576-0.144-0.72-0.07
			c-0.144,0.07-0.432,0-0.792-0.072c1.296-2.304,2.088-4.752,2.304-7.2c0.288-2.52,0.504-5.04,0.792-7.632
			c0-0.36,0-0.72,0.072-1.008C194.184,479.88,194.184,479.592,194.184,479.376z M275.328,480.528
			c0.144-0.434-0.072-0.722-0.504-1.08c-0.432-0.288-0.936-0.504-1.44-0.576c-0.504-0.072-1.008,0-1.512,0.216
			s-0.864,0.504-0.936,0.864c-1.152,4.464-3.456,7.704-6.912,9.646c-3.456,2.018-7.272,3.024-11.304,3.024
			c-3.384,0-6.84-0.648-10.584-1.944c-3.672-1.296-6.552-3.312-8.64-6.12v-37.224h2.52c1.512,0,3.456,0,5.76,0
			c2.304,0,4.608,0.072,6.984,0.216c2.376,0.146,4.536,0.36,6.408,0.648c1.944,0.358,3.24,0.72,3.816,1.224
			c0.432,0.288,0.864,0.938,1.296,1.944c0.432,1.008,0.864,2.088,1.224,3.24c0.144,0.646,0.144,1.15,0.072,1.438
			c0,0.36,0.72,0.938,2.232,1.872c0.648,0.504,1.368,0.576,2.088,0.36c0.792-0.288,1.224-0.722,1.368-1.368
			c0.288-1.8,0.504-3.456,0.792-4.968c0.216-1.514,0.504-3.098,0.72-4.608c0.288-1.656,0.504-3.6,0.72-5.904
			c0.144-2.304,0.36-4.318,0.648-5.976c0.144-0.648-0.072-1.152-0.648-1.656c-0.576-0.432-1.368-0.504-2.232-0.288
			c-0.792,0.288-1.584,0.864-2.376,1.729c-0.864,0.936-1.8,1.656-2.808,2.16h0.216c-1.152,0.358-2.232,0.792-3.312,1.224
			c-1.008,0.432-1.8,0.647-2.448,0.647h-23.04v-36.575h3.456c1.008,0,2.088-0.072,3.096-0.146c1.008-0.07,1.944-0.07,2.88-0.07
			c1.008,0,2.016,0,2.952-0.072s1.944-0.146,2.952-0.146c1.8,0,3.6,0.146,5.4,0.434c1.8,0.216,3.384,0.72,4.752,1.438
			c1.44,0.648,2.592,1.656,3.456,2.952c0.936,1.296,1.44,3.024,1.584,5.185c0.072,1.009,0.792,1.513,2.088,1.513
			c1.296,0,2.016-0.434,2.304-1.368c0.216-0.72,0.432-1.512,0.576-2.232c0.144-0.792,0.288-1.654,0.576-2.52
			c0.504-2.016,1.008-4.104,1.512-6.12c0.504-2.088,0.936-4.32,1.152-6.696c0.144-0.646-0.144-1.15-0.72-1.584
			c-0.648-0.358-1.44-0.432-2.304-0.144c-1.8,0.576-5.328,1.08-10.584,1.296c-5.256,0.288-11.016,0.432-17.424,0.432
			c-4.464,0-8.928-0.07-13.248-0.144c-4.32-0.072-8.352-0.146-12.096-0.288c-2.304,0-4.32,0-6.192-0.072
			c-1.872-0.071-3.384-0.071-4.536-0.071s-1.872,0.359-2.304,1.079c-0.36,0.792-0.072,1.44,1.008,1.944
			c1.008,0.648,2.016,1.08,3.096,1.368c1.152,0.216,2.16,0.504,3.168,0.72c1.44,0.288,2.736,0.792,3.96,1.44
			c1.224,0.72,1.8,2.16,1.8,4.318v78.624c0,3.456-0.576,6.266-1.728,8.354s-3.456,3.24-7.056,3.384c-1.152,0-1.8,0.504-1.8,1.584
			c-0.072,1.08,0.432,1.729,1.584,1.8c4.464,0.288,9,0.36,13.608,0.288c4.608,0,9.216-0.071,13.824-0.071
			c2.016,0,4.104,0,6.12-0.071c2.088-0.072,4.104-0.146,6.12-0.146c0.936,0,2.52,0.072,4.752,0.146
			c2.232,0.071,4.608,0.144,7.056,0.144c2.52,0.072,4.824,0.146,6.984,0.146c2.232,0,3.672-0.146,4.464-0.434l1.512-0.72
			L275.328,480.528z M395.136,496.224c-3.456-0.72-6.696-2.376-9.792-4.752c-3.024-2.446-5.976-5.328-8.784-8.64
			c-2.808-3.313-5.544-6.984-8.136-10.872c-2.664-3.888-5.112-7.776-7.416-11.592c-1.8-3.168-3.744-6.336-5.832-9.504
			c-2.088-3.098-4.104-5.978-6.048-8.496c1.44-1.656,2.88-3.456,4.32-5.473c1.44-2.017,3.096-4.319,4.896-6.983
			c2.304-3.313,4.752-6.77,7.272-10.368c2.592-3.6,5.184-6.84,7.848-9.792c2.736-2.952,5.4-5.4,8.136-7.344
			c2.808-2.018,5.472-3.098,8.208-3.385c1.224-0.145,1.944-0.647,2.088-1.513c0.144-0.936-0.432-1.512-1.728-1.728
			c-2.592-0.648-5.256-1.008-8.064-1.152c-2.808-0.144-5.616-0.216-8.424-0.216c-2.664,0-5.4,0.072-8.064,0.216
			c-2.664,0.146-5.4,0.288-8.064,0.576c-1.296,0.144-1.944,0.647-2.088,1.512c-0.144,0.938,0.432,1.513,1.728,1.729
			c1.296,0.288,2.736,0.792,4.32,1.512c1.584,0.792,2.376,1.944,2.376,3.456c0,0.792-0.36,1.872-1.152,3.168
			c-0.792,1.368-1.728,2.88-2.952,4.536c-1.224,1.656-2.592,3.384-4.104,5.256c-1.584,1.872-3.096,3.672-4.608,5.472
			c-1.8,2.16-3.456,4.178-4.896,5.978c-1.512,1.728-2.736,3.456-3.744,5.11c-1.152-1.728-2.448-3.6-3.816-5.544
			c-1.44-1.872-2.88-3.96-4.464-6.12c-2.664-3.814-5.184-7.486-7.632-10.942c-2.448-3.456-3.672-6.048-3.672-7.849
			c0-1.439,0.576-2.447,1.728-3.169c1.152-0.72,2.304-1.224,3.456-1.654c1.008-0.217,1.44-0.864,1.224-1.801
			c-0.144-0.937-0.864-1.439-2.016-1.439c-2.376,0.144-4.824,0.144-7.128,0.144c-2.376-0.07-4.752-0.144-7.056-0.144H306
			c-2.808,0-5.688,0.072-8.568,0.216c-2.88,0.146-5.544,0.504-8.136,1.152c-1.152,0.216-1.728,0.792-1.728,1.728
			c0,0.722,0.648,1.296,1.944,1.514c3.312,0.504,6.408,1.728,9.288,3.742c2.88,2.018,5.544,4.394,8.064,7.272
			c2.448,2.88,4.824,6.048,7.056,9.504s4.392,6.84,6.48,10.152c1.224,2.16,2.952,4.896,5.184,8.278
			c2.16,3.313,3.96,6.05,5.544,8.208c-1.8,2.16-3.456,4.465-5.04,6.912c-1.512,2.448-3.24,5.112-5.112,8.064
			c-2.592,3.814-5.256,7.774-7.992,11.88c-2.736,4.104-5.616,7.848-8.496,11.23c-2.952,3.386-5.976,6.192-9.072,8.426
			c-3.024,2.23-6.12,3.384-9.144,3.526c-1.296,0.146-1.944,0.722-1.872,1.801c0.072,1.151,0.792,1.655,2.016,1.655h4.608
			c4.608,0,9.288,0,14.04-0.071c4.68-0.071,9.432-0.217,14.184-0.505c1.152-0.144,1.728-0.574,1.872-1.438
			c0.144-0.792-0.288-1.44-1.296-1.8c-1.08-0.504-2.232-0.792-3.456-0.792c-0.648,0-1.296-0.217-1.944-0.722
			c0.36-1.728,1.224-3.814,2.52-6.336c1.224-2.592,2.808-5.328,4.68-8.136c1.872-2.88,3.816-5.832,5.832-8.855
			c2.088-3.023,3.96-5.761,5.76-8.353c1.008-1.368,1.944-2.664,2.664-3.744c0.792-1.08,1.512-2.088,2.16-3.168
			c1.008,1.584,2.304,3.528,4.032,5.978c1.656,2.446,3.384,4.968,5.256,7.632c1.8,2.734,3.672,5.472,5.544,8.279
			c1.872,2.809,3.528,5.327,4.968,7.633c1.512,2.304,2.664,4.248,3.528,5.902c0.936,1.584,1.368,2.593,1.368,2.952
			c0,0.792-0.216,1.368-0.792,1.944c-0.864,0.576-1.152,1.296-0.864,1.943c0.36,0.721,1.08,1.079,2.232,1.079
			c2.592,0,5.184,0.072,7.776,0.072c2.592,0.072,5.256,0.216,7.92,0.288c2.592,0.145,5.112,0.216,7.704,0.216
			c2.52,0,5.184,0,7.848,0L395.136,496.224z M447.48,496.8c-1.01-0.864-2.09-1.438-3.168-1.584c-1.08-0.216-2.306-0.288-3.744-0.288
			c-0.648,0-1.297-0.07-2.088-0.216c-0.793-0.144-1.368-0.288-1.729-0.36c-0.288-0.432-0.576-1.15-0.936-2.158
			c-0.434-1.01-0.722-2.09-1.01-3.24c-0.216-1.152-0.432-2.232-0.646-3.24s-0.288-1.8-0.288-2.304v-77.474
			c0-3.096,0.864-4.968,2.664-5.76s3.96-1.368,6.552-1.728c1.152-0.216,1.656-0.792,1.656-1.729
			c-0.072-0.862-0.72-1.368-1.872-1.512c-2.952-0.288-5.832-0.288-8.641,0c-2.809,0.216-5.688,0.36-8.567,0.36
			c-2.952,0-5.977-0.146-9.072-0.36c-3.022-0.288-6.12-0.288-9.144,0c-1.296,0.144-1.944,0.648-2.018,1.584
			c-0.07,1.008,0.504,1.512,1.802,1.656c2.304,0.288,4.534,0.936,6.624,2.016c2.088,1.08,3.168,2.88,3.168,5.473v78.049
			c0,1.008-0.146,2.158-0.288,3.456c-0.218,1.224-0.504,2.52-0.864,3.814c-0.432,1.296-0.938,2.304-1.656,3.168
			c-0.72,0.792-1.584,1.226-2.592,1.226c-0.216,0-0.576,0.144-1.008,0.287c-0.504,0.217-1.008,0.145-1.656-0.071
			c-1.152-0.288-2.016,0.216-2.52,1.438c-0.506,1.226-0.146,2.018,1.008,2.376c0.863,0.36,2.088,0.648,3.744,0.648
			c1.584,0.072,3.238,0.072,4.968-0.072c1.728-0.144,3.312-0.216,4.896-0.359c1.514-0.145,2.81-0.217,3.816-0.217l7.271,0.217
			c2.447,0.145,4.752,0.145,6.983,0s4.536-0.145,6.84,0L447.48,496.8z M674.136,510.048v-3.456c-3.744-0.288-7.2-1.15-10.438-2.664
			c-3.313-1.584-5.832-4.176-7.633-7.848c-2.663-5.76-5.399-11.88-8.137-18.36c-2.734-6.407-5.472-13.031-8.136-19.8
			c-2.664-6.768-5.256-13.536-7.776-20.16c-2.446-6.624-4.896-13.031-7.198-19.15c-1.656-4.465-3.386-8.856-5.257-13.032
			c-1.873-4.248-3.527-8.424-5.041-12.456c-0.286-0.576-0.504-1.152-0.72-1.944c-0.144-0.792-0.504-1.512-1.008-2.304
			c-1.44-3.96-3.024-8.28-4.824-12.816c-1.8-4.606-3.744-8.136-5.976-10.584c-0.504-0.646-1.08-0.792-1.729-0.358
			c-0.575,0.358-1.08,0.792-1.296,1.296c-4.752,12.456-9.432,24.768-14.04,37.008c-4.536,12.313-9.071,24.624-13.606,37.008
			c-3.024,8.424-6.049,17.136-9.072,25.992c-3.024,8.855-6.192,17.568-9.504,25.992c-0.648,1.512-1.512,3.168-2.592,4.896
			c-1.08,1.729-2.376,3.313-3.816,4.752c-1.512,1.514-3.023,2.736-4.607,3.673s-3.239,1.439-4.896,1.439
			c-0.146,0-0.504,0-1.08-0.072c-0.576-0.07-0.936,0.072-1.224,0.434c-0.504,0.504-0.648,1.08-0.36,1.584
			c0.146,0.216,0.288,0.504,0.576,0.72c0.216,0.288,0.358,0.432,0.358,0.432l39.89,0.146c1.296,0,1.942-0.433,2.016-1.44
			c0.072-0.936-0.576-1.512-1.8-1.8c-1.944-0.288-3.888-0.72-5.904-1.439c-1.942-0.721-2.952-2.159-2.952-4.319
			c0-1.656,0.576-4.536,1.656-8.712c1.08-4.177,2.376-8.568,3.89-13.248c1.584-4.681,3.096-9.216,4.752-13.608
			c1.584-4.392,2.88-7.774,3.888-10.08h37.8c2.952,8.064,5.977,16.128,9.072,24.192c3.168,8.063,6.264,16.128,9.288,24.12
			L630,507.528c-0.72,0.646-0.936,1.224-0.576,1.728c0.433,0.504,1.08,0.864,2.16,1.008c2.664,0.218,5.977,0.288,9.936,0.146
			c3.961-0.146,7.346-0.146,10.152-0.146c3.816,0,7.632,0,11.304,0.072C666.72,510.408,670.392,510.264,674.136,510.048z
			 M614.52,445.608h-30.888c2.81-8.064,5.4-15.77,7.776-23.112s4.824-15.048,7.344-23.112L614.52,445.608z M768.456,367.776
			l-3.096-1.514c-3.456,1.368-6.842,2.088-10.152,2.088H735.12c-8.354,0-16.561,0-24.696-0.07
			c-8.063-0.072-16.271-0.216-24.624-0.504c-1.008,0-1.655,0.432-2.016,1.224c-0.288,0.864,0.071,1.512,1.08,2.016
			c1.296,0.792,2.52,1.368,3.814,1.872c1.296,0.434,2.521,0.792,3.672,1.01c1.01,0.286,1.944,0.504,2.736,0.79
			c0.864,0.218,1.584,0.648,2.232,1.226c0.646,0.576,1.15,1.438,1.512,2.52c0.432,1.08,0.576,2.594,0.576,4.466v106.271
			c0,3.024-0.072,5.544-0.146,7.56c-0.144,1.944-0.576,3.602-1.367,4.754c-0.793,1.224-1.943,2.158-3.456,2.808
			c-1.513,0.646-3.673,1.224-6.553,1.728c-1.224,0.288-1.872,0.864-1.8,1.802c0.072,1.008,0.72,1.438,2.016,1.438
			c7.776,0.433,15.696,0.576,23.762,0.576c7.848,0,15.552-0.145,23.256-0.576l-0.434-3.24c-6.406,0.288-10.512-1.08-12.384-3.96
			c-1.8-2.88-2.734-7.344-2.734-13.464V439.49c1.008,0.144,1.871,0.216,2.446,0.216c0.792,0,1.729,0,2.736,0
			c1.368,0,2.664-0.072,3.888-0.146c1.226-0.07,2.521-0.144,3.96-0.287c1.298-0.071,2.521-0.217,3.673-0.287
			c1.08-0.072,2.231-0.072,3.385-0.072c5.04,0,8.854,1.008,11.664,2.952c2.734,2.016,4.031,5.76,3.888,11.23
			c0,0.504,0.216,0.864,0.647,1.152c0.505,0.288,0.937,0.432,1.439,0.504c0.576,0.072,1.008,0,1.44-0.216
			c0.504-0.216,0.792-0.576,0.862-1.08c1.08-4.464,1.872-9,2.521-13.608c0.646-4.606,1.08-9.216,1.368-13.968
			c0-0.936-0.504-1.512-1.368-1.728c-0.864-0.288-1.729-0.072-2.521,0.575c-0.574,0.792-1.728,1.655-3.238,2.809
			c-1.514,1.08-2.81,1.584-3.816,1.584h-32.976v-49.104c2.016,0,3.744-0.07,5.184-0.358c1.368-0.216,3.096-0.504,5.185-0.792
			c2.305-0.216,4.535-0.504,6.695-0.721c2.16-0.287,4.32-0.433,6.48-0.433c5.04,0,9,1.152,11.88,3.313
			c2.952,2.158,4.464,5.976,4.464,11.52c0,0.72,0.36,1.224,1.008,1.512c0.72,0.217,1.513,0.217,2.448-0.216
			c1.008-0.72,1.8-1.872,2.448-3.312c0.646-1.514,1.15-3.098,1.438-4.896c0.36-1.8,0.576-3.672,0.721-5.688
			c0.071-1.944,0.217-3.89,0.359-5.616c0.146-1.296,0.216-2.521,0.288-3.672C768.24,369.504,768.313,368.568,768.456,367.776z"/>
		<polygon fill="#A8CF45" points="455.616,509.256 80.424,509.256 80.424,506.088 455.616,506.088 		"/>
		
			<linearGradient id="SVGID_2_" gradientUnits="userSpaceOnUse" x1="4374.0352" y1="855.9141" x2="3901.8206" y2="2432.002" gradientTransform="matrix(0.072 0 0 0.072 13.0235 1.0006)">
			<stop  offset="0" style="stop-color:#222745"/>
			<stop  offset="1" style="stop-color:#4B586D"/>
		</linearGradient>
		<path fill="url(#SVGID_2_)" d="M228.384,39.384C261,99,337.248,30.312,369.36,112.824
			C318.096,63.36,247.68,131.472,228.384,39.384z M244.296,81c31.68,57.816,105.696-8.784,136.8,71.208
			C331.344,104.184,263.088,170.28,244.296,81z M259.2,119.808c31.68,57.816,105.624-8.784,136.8,71.28
			C346.248,143.064,277.992,209.16,259.2,119.808z"/>
		
			<linearGradient id="SVGID_3_" gradientUnits="userSpaceOnUse" x1="6483.1221" y1="4772.7188" x2="6483.1221" y2="2488.2385" gradientTransform="matrix(0.072 0 0 0.072 13.0235 1.0006)">
			<stop  offset="0" style="stop-color:#222745"/>
			<stop  offset="1" style="stop-color:#4B586D"/>
		</linearGradient>
		<path fill="url(#SVGID_3_)" d="M563.616,342.72C531,283.104,454.752,351.792,422.64,269.28
			C473.904,318.816,544.32,250.704,563.616,342.72z M547.704,301.176c-31.68-57.816-105.696,8.712-136.8-71.28
			C460.656,277.92,528.912,211.824,547.704,301.176z M532.8,262.296c-31.68-57.816-105.624,8.784-136.8-71.208
			C445.752,239.04,514.008,173.016,532.8,262.296z"/>
		<g>
			
				<linearGradient id="SVGID_4_" gradientUnits="userSpaceOnUse" x1="6483.1211" y1="407.4834" x2="6483.1211" y2="2890.6094" gradientTransform="matrix(0.072 0 0 0.072 13.0235 1.0006)">
				<stop  offset="0" style="stop-color:#A8CF45"/>
				<stop  offset="1" style="stop-color:#C9D2B0"/>
			</linearGradient>
			<path fill="url(#SVGID_4_)" d="M563.616,39.384C531,99,454.752,30.312,422.64,112.824
				C473.904,63.36,544.32,131.472,563.616,39.384z M547.704,81c-31.68,57.816-105.696-8.784-136.8,71.208
				C460.656,104.184,528.912,170.28,547.704,81z M532.8,119.808c-31.68,57.816-105.624-8.784-136.8,71.28
				C445.752,143.064,514.008,209.16,532.8,119.808z"/>
			
				<linearGradient id="SVGID_5_" gradientUnits="userSpaceOnUse" x1="4155.1182" y1="4872.0391" x2="4155.1182" y2="2388.9089" gradientTransform="matrix(0.072 0 0 0.072 13.0235 1.0006)">
				<stop  offset="0" style="stop-color:#A8CF45"/>
				<stop  offset="1" style="stop-color:#C9D2B0"/>
			</linearGradient>
			<path fill="url(#SVGID_5_)" d="M228.384,342.72c32.616-59.616,108.864,9.072,140.976-73.44
				C318.096,318.816,247.68,250.704,228.384,342.72z M244.296,301.176c31.68-57.816,105.696,8.712,136.8-71.28
				C331.344,277.92,263.088,211.824,244.296,301.176z M259.2,262.296c31.68-57.816,105.624,8.784,136.8-71.208
				C346.248,239.04,277.992,173.016,259.2,262.296z"/>
		</g>
		<path fill="#A8CF45" d="M33.696,554.76c-0.072,1.44-0.144,2.664-0.144,3.602c0,4.968,0.792,7.99,2.304,9.07
			c0.72,0.504,2.376,0.792,4.968,0.792c2.736,0,7.92-0.504,15.624-1.438c0.936,0.576,1.368,1.296,1.368,2.23
			c0,0.938-0.432,1.656-1.368,2.306c-1.224,0.792-5.04,1.224-11.52,1.224c-2.016,0-5.04-0.072-9.072-0.144
			c-2.52-0.146-4.536-1.08-5.976-2.882c-1.44-1.654-2.088-3.814-2.088-6.336V545.04c0-3.672,1.152-6.192,3.528-7.704
			c1.8-1.152,4.68-1.728,8.568-1.728c0.792,0,2.088,0.07,3.744,0.144c1.656,0,2.952,0.072,3.744,0.072
			c4.032,0,6.912,0.576,8.712,1.728c2.232,1.44,3.384,4.104,3.384,7.92c0.072,4.97-1.008,8.354-3.312,10.009
			c-1.872,1.367-5.4,2.089-10.584,2.089C40.752,557.568,36.792,556.632,33.696,554.76z M33.552,551.952
			c1.944,0.646,3.672,1.08,5.184,1.224c0.792,0.072,2.52,0.146,5.184,0.146c3.6,0,5.976-0.288,7.128-0.792
			c1.584-0.792,2.376-2.594,2.376-5.4c0-0.576,0-1.296-0.144-2.16c-0.288-3.456-3.024-5.111-8.064-5.111c-0.072,0-1.296,0-3.6,0.071
			c-2.52,0.146-4.392,0.434-5.472,1.009c-1.728,0.863-2.592,2.376-2.592,4.535V551.952z M107.208,539.136
			c0.288-4.248-0.432-7.056-2.016-8.496c-0.504-0.432-1.872-1.008-4.104-1.728c-2.088-0.648-3.096-1.08-3.096-1.296
			c0-0.576,0.792-0.864,2.232-0.864c0.72,0,1.728,0.145,3.024,0.288c6.984,0.864,10.44,3.6,10.44,8.063v35.93
			c0,1.008-0.648,1.438-2.016,1.438c-1.224,0-2.232-0.358-3.096-1.15c-0.792-0.792-1.296-1.802-1.44-3.024
			c-5.04,2.521-8.856,3.816-11.448,3.816c-3.888,0-6.768-0.434-8.568-1.226c-2.736-1.224-4.104-3.526-4.104-6.84v-20.016
			c0-2.952,1.368-5.112,4.176-6.553c2.16-1.079,4.824-1.655,8.064-1.655C99.072,535.824,103.104,536.904,107.208,539.136z
			 M107.208,542.952c-0.432-1.08-2.016-1.872-4.68-2.448c-1.8-0.359-3.672-0.576-5.544-0.576c-2.952,0-4.896,0.36-5.832,1.08
			c-1.224,0.938-1.872,2.81-1.8,5.688l0.216,16.2c0,3.384,1.728,5.11,5.184,5.11c0.36,0,1.008-0.071,1.872-0.071
			c0.864-0.071,1.44-0.071,1.872-0.071c4.968,0,7.848-0.648,8.712-2.018V542.952z M163.512,568.44
			c-4.536,2.304-9.648,3.384-15.264,3.168c-3.744-0.072-6.336-1.152-7.92-3.168c-1.368-1.802-2.088-4.608-2.088-8.426
			c0-0.862,0.072-2.088,0.144-3.814c0-1.656,0.072-2.952,0.072-3.744c0-1.152-0.072-2.808-0.072-4.968
			c-0.072-2.232-0.144-3.89-0.144-4.97c0-2.592,0.072-4.176,0.216-4.606c0.432-1.512,1.512-2.304,3.312-2.304
			c2.16,0,3.24,0.646,3.24,2.016v25.128c0,3.096,1.944,4.68,5.832,4.68h1.584c0.144,0,0.432,0,0.72,0
			c0.36-0.07,0.648-0.07,0.792-0.07c1.296-0.072,2.88-0.146,4.68-0.288c1.8-0.146,3.168-0.576,4.104-1.368v-28.152
			c0-1.296,0.576-1.942,1.8-1.942c1.656,0,3.168,0.646,4.608,1.942V570.6c0,1.01-0.576,1.44-1.8,1.44
			C165.456,572.04,164.232,570.888,163.512,568.44z M221.4,541.368c-3.96-1.08-8.568-1.584-13.824-1.584
			c-2.664,0-4.392,0.288-5.256,0.792c-1.368,0.864-2.16,2.592-2.376,5.111c-0.144,2.521,0.36,4.177,1.44,4.969
			c0.576,0.432,1.656,0.646,3.24,0.646c0.864,0,2.16-0.07,3.888-0.216c1.728-0.072,3.024-0.144,3.888-0.144
			c6.912,0,10.368,2.52,10.296,7.632v4.606c-0.144,5.978-3.456,9.072-10.08,9.288c-1.512,0-4.248,0-8.136,0
			c-3.24,0-5.112,0-5.688-0.07c-2.448-0.434-3.672-1.514-3.672-3.313c0-1.008,0.504-1.8,1.368-2.304
			c4.032,1.08,8.28,1.656,12.816,1.656c2.736,0,4.536-0.36,5.472-1.01c1.44-1.08,2.232-3.096,2.232-6.048
			c0-3.744-1.44-5.616-4.176-5.688c-1.152-0.072-2.736,0-4.68,0.07c-2.232,0.146-3.816,0.218-4.752,0.218
			c-3.6,0-6.12-0.938-7.56-2.882c-1.224-1.654-1.8-4.318-1.8-8.063c0-4.392,1.872-7.344,5.688-8.64
			c1.368-0.505,5.256-0.792,11.664-0.792c6.048,0,9.36,0.358,10.008,0.936c1.008,0.938,1.44,1.872,1.44,2.808
			C222.84,540.216,222.408,540.864,221.4,541.368z M277.92,563.184c0,2.521-0.792,4.682-2.232,6.408
			c-1.368,1.729-3.384,2.664-5.904,2.81c-6.264,0.287-11.376,0.287-15.192,0c-0.936-0.146-1.872-0.36-2.88-0.792
			c-3.456-1.44-5.184-4.248-5.184-8.426V545.04c0-4.248,1.728-7.056,5.184-8.496c1.584-0.646,4.824-1.008,9.504-1.008
			c2.592,0,5.472,0.144,8.64,0.288c3.744,0.216,6.12,1.872,7.2,4.968c0.576,1.584,0.864,4.752,0.864,9.576v6.408
			c0-0.146,0,1.15,0,3.96C277.92,560.736,277.92,561.528,277.92,563.184z M272.016,560.952c0-0.938,0.072-2.448,0.144-4.394
			c0.144-2.016,0.216-3.526,0.216-4.464c0-6.624-0.792-10.438-2.376-11.376c-0.72-0.504-2.736-0.792-5.904-0.792
			c-0.576,0-1.368,0-2.448,0c-1.152-0.071-1.944-0.071-2.52-0.071c-2.52,0-4.32,0.575-5.256,1.655
			c-1.008,1.152-1.44,3.024-1.44,5.688c0,1.008-0.072,2.448-0.216,4.464c-0.072,1.944-0.144,3.456-0.144,4.464
			c0,6.48,0.792,10.224,2.376,11.304c0.792,0.505,2.808,0.792,5.904,0.792c0.576,0,1.44,0,2.52,0.072c1.08,0,1.944,0.072,2.52,0.072
			c2.592,0,4.32-0.648,5.328-1.8C271.584,565.488,272.016,563.616,272.016,560.952z M309.312,542.448
			c-0.144,2.592-0.144,5.76-0.072,9.504h11.952c0.792,0,1.512,0.216,2.16,0.646c0.72,0.505,1.008,1.08,1.008,1.802
			c0,0.646-0.288,1.224-1.008,1.654c-0.648,0.36-1.368,0.576-2.16,0.576H309.24v13.608c0,1.368-1.08,2.016-3.24,2.016
			s-3.24-0.646-3.24-2.016v-33.336c0-0.938,0.648-1.368,1.872-1.368c1.224,0,2.232,0.432,3.096,1.296
			c0.864,0.936,1.368,2.016,1.512,3.24c3.456-2.664,6.912-3.96,10.296-3.96c5.832,0,8.712,1.15,8.712,3.384
			c0,1.008-0.432,1.8-1.368,2.304c-2.952-0.576-6.264-0.936-9.936-0.936C312.984,540.864,310.464,541.368,309.312,542.448z
			 M369.144,540.576v29.664c0,1.368-1.08,2.016-3.24,2.016c-2.16,0-3.168-0.646-3.168-2.016v-29.664c-0.72,0-1.8,0.072-3.24,0.144
			c-1.368,0.072-2.448,0.072-3.168,0.072c-4.104,0-6.12-0.792-6.12-2.521c0-0.721,0.36-1.297,1.008-1.729
			c0.72-0.432,1.44-0.646,2.16-0.646h24.696c0.648,0,1.368,0.216,2.088,0.646c0.72,0.432,1.008,1.008,1.008,1.656
			c0,1.728-1.944,2.592-5.904,2.592c-0.72,0-1.728,0-3.096-0.072C370.872,540.648,369.864,540.576,369.144,540.576z M439.2,570.6
			c-0.434-0.216-0.648-0.72-0.648-1.438v-31.536c0-1.368,1.008-2.016,3.168-2.016s3.24,0.646,3.24,2.016v29.808h17.568
			c0.72,0,1.438,0.218,2.088,0.648c0.72,0.504,1.08,1.08,1.08,1.728c0,0.576-0.36,1.08-0.938,1.584
			c-0.936,0.722-4.176,1.01-9.646,1.01c0,0-2.521,0-7.776-0.146h-5.184C440.712,572.184,439.704,571.68,439.2,570.6z
			 M492.552,572.112c-2.088,0-3.096-0.576-3.096-1.872v-32.616c0-1.224,1.152-1.872,3.384-1.872c2.018,0,3.024,0.648,3.024,1.872
			v32.616C495.864,571.536,494.784,572.112,492.552,572.112z M549.864,541.152c0.288,0.72,0.504,5.398,0.72,14.11
			c0.072,1.296,0.145,3.313,0.36,5.904c0.358,7.344-0.864,10.944-3.816,10.944c-2.16,0-3.24-0.648-3.24-2.018v-25.199
			c0-2.231-0.72-3.601-2.23-4.177c-0.864-0.358-2.521-0.504-5.112-0.504c-4.824,0-7.92,0.576-9.216,1.656v28.224
			c0,1.368-0.648,2.018-1.872,2.018c-1.656,0-3.168-0.648-4.608-1.944v-33.12c0-0.936,0.648-1.438,1.802-1.438
			c1.871,0,3.168,1.224,3.814,3.6c4.464-2.16,8.712-3.24,12.889-3.24c3.815,0,6.769,1.008,8.929,3.024
			c4.392-2.16,9.358-3.24,14.76-3.024c3.744,0.072,6.408,1.152,7.92,3.168c1.44,1.8,2.088,4.608,2.088,8.496
			c0,0.792,0,2.088-0.071,3.744c-0.071,1.728-0.071,2.952-0.071,3.816c0,1.008,0,2.663,0.071,4.968
			c0.071,2.16,0.071,3.814,0.071,5.04c0,2.592-0.071,4.104-0.144,4.464c-0.36,1.512-1.44,2.304-3.24,2.304
			c-2.232,0-3.313-0.646-3.313-1.872v-25.199c0-2.231-0.791-3.601-2.231-4.177c-0.864-0.358-2.521-0.504-5.112-0.504
			C554.472,540.216,551.376,540.504,549.864,541.152z M600.696,572.112c-2.088,0-3.098-0.576-3.098-1.872v-32.616
			c0-1.224,1.152-1.872,3.313-1.872c2.088,0,3.096,0.648,3.096,1.872v32.616C604.008,571.536,602.928,572.112,600.696,572.112z
			 M647.784,540.576v29.664c0,1.368-1.08,2.016-3.24,2.016s-3.24-0.646-3.24-2.016v-29.664c-0.72,0-1.728,0.072-3.168,0.144
			c-1.438,0.072-2.52,0.072-3.168,0.072c-4.104,0-6.12-0.792-6.12-2.521c0-0.721,0.288-1.297,1.008-1.729
			c0.648-0.432,1.368-0.646,2.09-0.646h24.694c0.722,0,1.44,0.216,2.089,0.646c0.721,0.432,1.079,1.008,1.079,1.656
			c0,1.728-1.942,2.592-5.902,2.592c-0.722,0-1.729,0-3.098-0.072C649.44,540.648,648.432,540.576,647.784,540.576z M688.464,554.76
			c-0.144,1.44-0.144,2.664-0.144,3.602c0,4.968,0.72,7.99,2.23,9.07c0.792,0.504,2.448,0.792,5.04,0.792
			c2.664,0,7.849-0.504,15.553-1.438c0.937,0.576,1.439,1.296,1.439,2.23c0,0.938-0.504,1.656-1.368,2.306
			c-1.296,0.792-5.111,1.224-11.52,1.224c-2.018,0-5.04-0.072-9.072-0.144c-2.521-0.146-4.536-1.08-6.048-2.882
			c-1.368-1.654-2.088-3.814-2.088-6.336V545.04c0-3.672,1.15-6.192,3.526-7.704c1.872-1.152,4.752-1.728,8.568-1.728
			c0.864,0,2.088,0.07,3.744,0.144c1.728,0,2.952,0.072,3.744,0.072c4.03,0,6.912,0.576,8.783,1.728
			c2.159,1.44,3.313,4.104,3.385,7.92c0,4.97-1.08,8.354-3.313,10.009c-1.942,1.367-5.472,2.089-10.655,2.089
			C695.448,557.568,691.488,556.632,688.464,554.76z M688.32,551.952c1.872,0.646,3.6,1.08,5.11,1.224
			c0.792,0.072,2.521,0.146,5.186,0.146c3.672,0,6.048-0.288,7.128-0.792c1.584-0.792,2.448-2.594,2.448-5.4
			c0-0.576-0.072-1.296-0.146-2.16c-0.359-3.456-3.022-5.111-8.136-5.111c-0.072,0-1.226,0-3.601,0.071
			c-2.521,0.146-4.393,0.434-5.473,1.009c-1.656,0.863-2.52,2.376-2.52,4.535v6.479H688.32z M761.976,539.136
			c0.218-4.248-0.432-7.056-2.088-8.496c-0.432-0.432-1.8-1.008-4.104-1.728c-2.018-0.648-3.024-1.08-3.024-1.296
			c0-0.576,0.722-0.864,2.232-0.864c0.646,0,1.656,0.145,2.952,0.288c6.982,0.864,10.512,3.6,10.512,8.063v35.93
			c0,1.008-0.72,1.438-2.017,1.438c-1.295,0-2.305-0.358-3.097-1.15c-0.862-0.792-1.368-1.802-1.512-3.024
			c-5.04,2.521-8.856,3.816-11.448,3.816c-3.888,0-6.695-0.434-8.566-1.226c-2.736-1.224-4.104-3.526-4.104-6.84v-20.016
			c0-2.952,1.368-5.112,4.176-6.553c2.16-1.079,4.824-1.655,8.064-1.655C753.84,535.824,757.8,536.904,761.976,539.136z
			 M761.976,542.952c-0.504-1.08-2.016-1.872-4.68-2.448c-1.872-0.359-3.744-0.576-5.616-0.576c-2.88,0-4.823,0.36-5.832,1.08
			c-1.224,0.938-1.8,2.81-1.8,5.688l0.216,16.2c0.072,3.384,1.802,5.11,5.186,5.11c0.432,0,1.08-0.071,1.872-0.071
			c0.862-0.071,1.512-0.071,1.942-0.071c4.896,0,7.85-0.648,8.712-2.018V542.952z"/>
	</g>
</g>
</svg>
